<svg xmlns="http://www.w3.org/2000/svg" viewBox="0 0 512 512"><style>.a{fill:#F5F5F5;}.b{fill:#FF4B55;}</style><path d="M503.2 423.7H8.8c-4.9 0-8.8-4-8.8-8.8V97.1c0-4.9 4-8.8 8.8-8.8h494.3c4.9 0 8.8 4 8.8 8.8v317.8C512 419.8 508 423.7 503.2 423.7z" class="a"/><rect x="114.8" y="88.3" width="282.5" height="335.5" class="a"/><path d="M8.8 88.3C4 88.3 0 92.2 0 97.1v317.8c0 4.9 4 8.8 8.8 8.8h105.9V88.3H8.8z" class="b"/><path d="M503.2 88.3H397.2v335.4h105.9c4.9 0 8.8-4 8.8-8.8V97.1C512 92.2 508 88.3 503.2 88.3z" class="b"/><path d="M309.6 294.8l52.4-29.9 -12-6c-3.4-1.7-5.3-5.3-4.8-9.1l3.9-29.3 -22.2 6.5c-4.9 1.4-10-1.6-11.1-6.6l-2.1-9.6 -20.8 24.4c-2.9 3.4-8.4 0.8-7.6-3.6l8.9-51.7 -13.6 3.7c-4 1.1-8.2-0.7-10.1-4.4l-14.3-26.9v0l0 0 0 0v0l-14.3 26.9c-1.9 3.6-6.1 5.4-10.1 4.4l-13.6-3.7 8.9 51.7c0.8 4.4-4.7 7-7.6 3.6l-20.8-24.4 -2.1 9.6c-1.1 5-6.2 8-11.1 6.6l-22.2-6.5 3.9 29.3c0.5 3.7-1.4 7.4-4.8 9.1l-12 6 52.4 29.9c5.4 3.1 7.8 9.7 5.6 15.5l-4.5 12 44.9-3.8c2.5-0.2 4.6 1.8 4.5 4.3l-1.4 48h8.8L259 322.7c-0.1-2.5 2-4.5 4.5-4.3l44.9 3.8 -4.5-12C301.8 304.4 304.1 297.9 309.6 294.8z" class="b"/></svg>